<?xml version="1.0" encoding="utf-8"?>
<!-- Generator: Adobe Illustrator 16.0.0, SVG Export Plug-In . SVG Version: 6.00 Build 0)  -->
<!DOCTYPE svg PUBLIC "-//W3C//DTD SVG 1.1//EN" "http://www.w3.org/Graphics/SVG/1.1/DTD/svg11.dtd">
<svg version="1.1" id="Layer_1" xmlns="http://www.w3.org/2000/svg" xmlns:xlink="http://www.w3.org/1999/xlink" x="0px" y="0px"
	 width="2156px" height="800px" viewBox="536.5 0 2156 800" enable-background="new 536.5 0 2156 800" xml:space="preserve">
<g>
	<g>
		<g>
			<path d="M2140.841,366.671c0-7.927-6.416-14.342-14.342-14.342c-7.928,0-14.341,6.416-14.341,14.342
				c0,37.657,41.539,89.365,46.271,95.149c2.843,3.444,6.961,5.236,11.104,5.236c3.195,0,6.416-1.064,9.091-3.25
				c6.119-5.028,7-14.06,1.988-20.193C2165.235,424.874,2140.841,387.425,2140.841,366.671z"/>
			<path d="M2441.998,352.329c-7.925,0-14.341,6.416-14.341,14.342c0,20.685-24.395,58.177-39.772,76.957
				c-5.013,6.119-4.118,15.152,2.003,20.179c2.66,2.186,5.883,3.25,9.089,3.25c4.145,0,8.247-1.792,11.092-5.236
				c4.734-5.784,46.272-57.49,46.272-95.149C2456.341,358.744,2449.927,352.329,2441.998,352.329z"/>
			<path d="M2284.25,352.329c-7.927,0-14.341,6.416-14.341,14.342v86.044c0,7.927,6.414,14.342,14.341,14.342
				s14.342-6.415,14.342-14.342v-86.044C2298.591,358.744,2292.175,352.329,2284.25,352.329z"/>
			<path d="M2441.998,122.876c-8.689,0-17.771,1.149-27.202,2.901c-31.586-36.82-78.342-60.266-130.546-60.266
				s-98.962,23.445-130.546,60.265c-9.433-1.751-18.515-2.902-27.204-2.902c-86.983,0.001-157.751,70.767-157.751,157.75
				c0,59.603,33.611,113.789,86.383,140.58l-0.281,216.723c-0.014,15.644,6.063,30.349,17.114,41.413
				c11.063,11.078,25.755,17.17,41.397,17.17h341.831c32.267,0,58.512-26.245,58.512-58.512V420.994
				c52.573-26.86,86.046-80.962,86.046-140.369C2599.747,193.642,2528.983,122.876,2441.998,122.876z M2485.022,638
				c0,16.44-13.389,29.831-29.831,29.831h-341.829c-7.969,0-15.461-3.11-21.105-8.753c-5.629-5.643-8.738-13.136-8.726-21.119
				l0.075-56.175h401.416V638z M2493.901,398.671c-0.758,0.309-1.473,0.672-2.143,1.107c-1.809,1.119-3.292,2.604-4.399,4.312
				c-1.119,1.694-1.876,3.656-2.185,5.757c-0.126,0.799-0.167,1.597-0.154,2.409v140.846h-401.377l0.184-140.65
				c0.014-0.784-0.027-1.582-0.14-2.354c-0.308-2.17-1.106-4.188-2.269-5.938c-1.096-1.638-2.521-3.066-4.258-4.159
				c-0.715-0.449-1.471-0.841-2.257-1.164c-47.068-20.584-77.474-66.94-77.474-118.212c0-71.173,57.896-129.068,129.068-129.068
				c2.781,0,5.718,0.336,8.6,0.564c-14.51,25.217-22.94,54.355-22.94,85.481c0,7.927,6.413,14.342,14.341,14.342
				c7.926,0,14.342-6.415,14.342-14.342c0-79.071,64.337-143.409,143.409-143.409c79.07,0,143.407,64.337,143.407,143.409
				c0,7.927,6.416,14.342,14.341,14.342c7.929,0,14.343-6.415,14.343-14.342c0-31.126-8.432-60.264-22.941-85.481
				c2.882-0.228,5.818-0.564,8.599-0.564c71.175,0,129.069,57.897,129.069,129.068
				C2571.067,331.714,2540.789,378.012,2493.901,398.671z"/>
		</g>
	</g>
</g>
<g>
	<path stroke="#000000" stroke-width="2" stroke-miterlimit="10" d="M639.653,422.528h103.15v24.534H612.053v-197.38H738.62v24.255
		h-98.967v59.103h93.113v23.698h-93.113V422.528z"/>
	<path stroke="#000000" stroke-width="2" stroke-miterlimit="10" d="M877.734,286.204c-3.902-5.388-9.2-9.801-15.892-13.243
		c-6.689-3.437-14.217-5.157-22.581-5.157c-4.461,0-8.969,0.605-13.521,1.812c-4.557,1.21-8.691,3.162-12.405,5.854
		c-3.721,2.696-6.74,6.042-9.062,10.037c-2.325,3.998-3.484,8.781-3.484,14.357c0,5.392,1.067,9.896,3.206,13.521
		c2.136,3.624,5.018,6.69,8.643,9.2c3.625,2.508,7.897,4.647,12.825,6.412c4.922,1.769,10.174,3.581,15.751,5.436
		c6.689,2.048,13.473,4.37,20.352,6.97c6.874,2.605,13.103,6.042,18.678,10.315c5.575,4.276,10.128,9.618,13.661,16.03
		c3.528,6.413,5.296,14.546,5.296,24.394c0,10.225-1.908,19.097-5.714,26.624c-3.812,7.528-8.879,13.757-15.195,18.679
		c-6.32,4.928-13.616,8.599-21.884,11.013c-8.271,2.413-16.775,3.623-25.51,3.623c-12.453,0-24.488-2.416-36.102-7.248
		c-11.618-4.831-21.236-11.989-28.855-21.467l21.467-18.121c4.645,6.879,10.873,12.454,18.679,16.729
		c7.806,4.278,16.261,6.411,25.37,6.411c4.644,0,9.291-0.649,13.939-1.95c4.644-1.299,8.873-3.347,12.685-6.134
		c3.808-2.788,6.921-6.273,9.339-10.454c2.413-4.183,3.624-9.245,3.624-15.195c0-5.947-1.254-10.916-3.763-14.916
		c-2.511-3.995-5.904-7.386-10.176-10.174c-4.279-2.789-9.247-5.157-14.916-7.11c-5.671-1.953-11.664-3.946-17.98-5.994
		c-6.322-1.855-12.547-4.134-18.68-6.83c-6.132-2.692-11.617-6.133-16.448-10.315c-4.835-4.182-8.737-9.339-11.709-15.472
		c-2.976-6.134-4.461-13.753-4.461-22.86c0-9.85,1.995-18.304,5.995-25.37c3.994-7.061,9.198-12.916,15.612-17.563
		c6.411-4.644,13.659-8.038,21.745-10.175c8.084-2.135,16.212-3.207,24.394-3.207c11.522,0,22.303,2.048,32.339,6.133
		c10.037,4.091,18.121,9.575,24.254,16.449L877.734,286.204z"/>
	<path stroke="#000000" stroke-width="2" stroke-miterlimit="10" d="M1107.448,416.396c-7.806,10.594-17.938,19.193-30.387,25.788
		c-12.453,6.594-27.416,9.896-44.885,9.896c-15.054,0-28.95-2.556-41.678-7.666c-12.733-5.111-23.697-12.268-32.897-21.465
		c-9.198-9.202-16.403-20.167-21.605-32.898c-5.206-12.728-7.806-26.716-7.806-41.958c0-15.424,2.648-29.503,7.946-42.236
		c5.297-12.728,12.636-23.6,22.022-32.618c9.383-9.012,20.491-16.03,33.316-21.048c12.822-5.018,26.762-7.528,41.817-7.528
		c6.689,0,13.473,0.653,20.351,1.952c6.875,1.303,13.473,3.254,19.795,5.854c6.316,2.605,12.078,5.812,17.284,9.619
		c5.2,3.812,9.661,8.225,13.381,13.242l-21.745,16.728c-4.834-6.691-11.666-12.219-20.49-16.588
		c-8.829-4.365-18.355-6.551-28.575-6.551c-11.526,0-21.885,2.09-31.085,6.272c-9.2,4.182-17.055,9.897-23.558,17.145
		c-6.507,7.249-11.526,15.66-15.054,25.231c-3.533,9.574-5.297,19.75-5.297,30.526c0,11.153,1.715,21.562,5.157,31.225
		c3.437,9.665,8.364,18.078,14.775,25.23c6.411,7.156,14.218,12.78,23.417,16.865c9.2,4.09,19.469,6.134,30.808,6.134
		c11.15,0,21.278-2.23,30.387-6.691c9.104-4.461,16.631-10.964,22.581-19.515L1107.448,416.396z"/>
	<path stroke="#000000" stroke-width="2" stroke-miterlimit="10" d="M1210.877,452.08c-13.012,0-24.35-2.187-34.013-6.55
		c-9.664-4.366-17.659-10.177-23.975-17.425c-6.32-7.249-11.012-15.564-14.078-24.951c-3.066-9.383-4.601-19.099-4.601-29.133
		V249.682h27.601v122.667c0,6.69,0.836,13.337,2.508,19.933c1.673,6.6,4.413,12.5,8.225,17.702
		c3.808,5.206,8.824,9.387,15.055,12.545c6.226,3.162,13.982,4.741,23.278,4.741c9.104,0,16.819-1.579,23.14-4.741
		c6.315-3.158,11.382-7.339,15.193-12.545c3.808-5.201,6.551-11.102,8.224-17.702c1.673-6.596,2.511-13.243,2.511-19.933V249.682
		h27.598v124.339c0,10.034-1.531,19.75-4.599,29.133c-3.066,9.387-7.763,17.702-14.079,24.951
		c-6.32,7.248-14.314,13.059-23.976,17.425C1235.224,449.894,1223.885,452.08,1210.877,452.08z"/>
	<path stroke="#000000" stroke-width="2" stroke-miterlimit="10" d="M1361.698,422.528h103.149v24.534h-130.75v-197.38h126.567
		v24.255h-98.967v59.103h93.113v23.698h-93.113V422.528z"/>
	<path stroke="#000000" stroke-width="2" stroke-miterlimit="10" d="M1529.247,422.528h88.095v24.534h-115.695v-197.38h27.601
		V422.528z"/>
	<path stroke="#000000" stroke-width="2" stroke-miterlimit="10" d="M1652.186,447.062h-30.665l85.586-197.38h25.092l84.75,197.38
		h-31.223l-20.073-48.507h-93.672L1652.186,447.062z M1681.739,374.299h73.877l-36.801-92.557L1681.739,374.299z"/>
	<path fill="#F46767" d="M774.169,601.843c0,15.515-2.877,28.901-8.632,40.161c-5.757,11.26-13.348,20.518-22.771,27.775
		c-9.427,7.255-20.06,12.597-31.903,16.014c-11.845,3.421-23.857,5.129-36.03,5.129h-66.06V513.766h64.059
		c12.511,0,24.853,1.462,37.031,4.379c12.176,2.92,23.021,7.756,32.528,14.513c9.51,6.755,17.181,15.808,23.021,27.149
		C771.249,571.151,774.169,585.164,774.169,601.843z M729.629,601.843c0-10.009-1.625-18.305-4.879-24.897
		c-3.252-6.587-7.593-11.842-13.012-15.764c-5.423-3.916-11.595-6.713-18.517-8.383c-6.923-1.664-14.055-2.501-21.393-2.501h-21.27
		V653.89h20.268c7.672,0,15.052-0.877,22.145-2.628c7.088-1.751,13.344-4.63,18.767-8.633c5.419-4.003,9.76-9.34,13.012-16.014
		C728.004,619.945,729.629,611.688,729.629,601.843z"/>
	<path fill="#F46767" d="M802.441,690.922V513.766h119.105v36.031h-77.819v33.53h73.565v34.279h-73.565v36.783h82.323v36.532
		H802.441z"/>
	<path fill="#F46767" d="M1143.742,687.794c-11.509,5.254-24.771,7.883-39.785,7.883c-13.68,0-26.315-2.252-37.908-6.757
		c-11.597-4.504-21.644-10.884-30.151-19.141c-8.508-8.259-15.181-18.142-20.017-29.652c-4.841-11.51-7.258-24.186-7.258-38.034
		c0-14.176,2.46-27.023,7.382-38.534c4.92-11.51,11.717-21.307,20.394-29.4c8.671-8.09,18.848-14.301,30.526-18.642
		c11.674-4.335,24.272-6.506,37.783-6.506c12.512,0,24.811,2.214,36.908,6.632c12.092,4.422,21.895,10.885,29.4,19.393
		l-29.025,29.025c-4.004-5.506-9.258-9.592-15.764-12.262c-6.506-2.666-13.181-4.004-20.019-4.004
		c-7.506,0-14.387,1.377-20.642,4.129c-6.256,2.753-11.636,6.549-16.141,11.385c-4.504,4.84-8.006,10.553-10.509,17.141
		c-2.503,6.592-3.753,13.806-3.753,21.644c0,8.008,1.25,15.351,3.753,22.021c2.503,6.674,5.962,12.386,10.385,17.141
		c4.417,4.753,9.716,8.468,15.888,11.134c6.17,2.671,12.926,4.004,20.27,4.004c8.508,0,15.928-1.666,22.269-5.005
		c6.337-3.335,11.424-7.67,15.265-13.012l29.774,28.025C1164.926,675.407,1155.253,682.54,1143.742,687.794z"/>
	<path fill="#F46767" d="M1372.696,601.594c0,14.012-2.422,26.815-7.258,38.408c-4.84,11.596-11.552,21.519-20.143,29.777
		c-8.594,8.257-18.81,14.637-30.65,19.141c-11.848,4.505-24.69,6.757-38.535,6.757c-13.85,0-26.649-2.252-38.409-6.757
		c-11.76-4.504-21.937-10.884-30.526-19.141c-8.595-8.259-15.307-18.182-20.143-29.777c-4.841-11.593-7.258-24.396-7.258-38.408
		c0-14.177,2.417-26.981,7.258-38.409c4.836-11.425,11.548-21.144,20.143-29.151c8.59-8.007,18.767-14.176,30.526-18.517
		c11.76-4.335,24.56-6.506,38.409-6.506c13.845,0,26.688,2.171,38.535,6.506c11.841,4.341,22.057,10.51,30.65,18.517
		c8.591,8.008,15.303,17.727,20.143,29.151C1370.274,574.612,1372.696,587.417,1372.696,601.594z M1326.905,601.594
		c0-7.671-1.252-14.846-3.754-21.52c-2.501-6.67-5.965-12.387-10.384-17.141c-4.423-4.754-9.758-8.508-16.014-11.26
		c-6.255-2.752-13.138-4.128-20.644-4.128s-14.348,1.376-20.518,4.128c-6.175,2.752-11.512,6.506-16.014,11.26
		c-4.505,4.754-7.969,10.471-10.386,17.141c-2.419,6.674-3.628,13.849-3.628,21.52c0,8.007,1.252,15.388,3.752,22.144
		c2.503,6.756,5.963,12.555,10.386,17.391c4.419,4.841,9.715,8.632,15.89,11.385c6.17,2.753,13.012,4.129,20.518,4.129
		s14.344-1.376,20.518-4.129c6.17-2.753,11.512-6.544,16.014-11.385c4.504-4.836,8.009-10.635,10.51-17.391
		C1325.653,616.981,1326.905,609.601,1326.905,601.594z"/>
	<path fill="#F46767" d="M1527.832,687.794c-11.509,5.254-24.771,7.883-39.785,7.883c-13.681,0-26.315-2.252-37.908-6.757
		c-11.597-4.504-21.644-10.884-30.151-19.141c-8.508-8.259-15.181-18.142-20.017-29.652c-4.841-11.51-7.258-24.186-7.258-38.034
		c0-14.176,2.46-27.023,7.382-38.534c4.92-11.51,11.717-21.307,20.394-29.4c8.671-8.09,18.848-14.301,30.526-18.642
		c11.674-4.335,24.272-6.506,37.783-6.506c12.512,0,24.811,2.214,36.908,6.632c12.092,4.422,21.895,10.885,29.4,19.393
		l-29.025,29.025c-4.004-5.506-9.258-9.592-15.764-12.262c-6.506-2.666-13.181-4.004-20.019-4.004
		c-7.506,0-14.387,1.377-20.642,4.129c-6.256,2.753-11.636,6.549-16.141,11.385c-4.504,4.84-8.006,10.553-10.509,17.141
		c-2.503,6.592-3.753,13.806-3.753,21.644c0,8.008,1.25,15.351,3.753,22.021c2.503,6.674,5.962,12.386,10.385,17.141
		c4.417,4.753,9.716,8.468,15.888,11.134c6.17,2.671,12.926,4.004,20.27,4.004c8.508,0,15.928-1.666,22.269-5.005
		c6.337-3.335,11.424-7.67,15.265-13.012l29.774,28.025C1549.016,675.407,1539.343,682.54,1527.832,687.794z"/>
	<path fill="#F46767" d="M1575.123,690.922V513.766h43.039v177.156H1575.123z"/>
	<path fill="#F46767" d="M1767.291,690.922l-71.313-115.853h-0.749l1,115.853h-41.537V513.766h48.794l71.063,115.602h0.749
		l-1-115.602h41.537v177.156H1767.291z"/>
	<path fill="#F46767" d="M1972.472,690.922l-13.764-34.781h-68.561l-13.012,34.781h-46.54l74.315-177.156h41.536l73.565,177.156
		H1972.472z M1924.928,561.058l-22.52,60.803h44.54L1924.928,561.058z"/>
</g>
</svg>
